<svg width="454" height="271" viewBox="0 0 454 271" fill="none" xmlns="http://www.w3.org/2000/svg">
<rect width="454" height="271" fill="#1E1E1E"/>
<rect width="454" height="271" fill="white"/>
<path d="M249.853 30.0873C213.066 32.7836 184.701 48.4155 168.396 74.9351C162.635 84.3211 156.066 100.363 152.529 113.708L151.788 116.438L149.531 117.428C142.928 120.261 138.919 123.674 136.628 128.35C135.314 131.012 135.213 131.49 135.045 134.63C134.742 140.808 136.561 145.381 141.58 151.252L143.366 153.334L142.187 159.955C137.504 186.338 133.327 217.192 132.249 233.438C131.878 239.036 131.912 239.65 132.417 240.64C133.967 243.541 138.178 243.541 139.458 240.64C139.761 240.026 140.098 237.056 140.334 233.302C141.176 220.162 143.972 198.318 147.947 173.914C149.901 162.071 150.44 159.238 150.71 159.238C150.811 159.238 151.788 159.784 152.866 160.433C163.477 166.986 177.997 170.058 201.578 170.74L209.057 170.945L209.461 171.935C210.034 173.368 212.898 175.826 214.717 176.44C217.311 177.327 220.107 177.157 222.499 175.928C223.644 175.382 224.958 174.426 225.463 173.812L226.339 172.754L226.103 178.624C225.834 184.939 225.968 185.519 227.451 185.519C229 185.519 230.247 184.802 230.617 183.744C230.82 183.164 230.988 180.604 230.988 178.044V173.437L232.268 174.665C235.132 177.532 239.646 178.283 243.25 176.508C245.339 175.484 247.596 173.095 248.169 171.32L248.573 170.16H250.797C254.974 170.126 268.853 169.477 272.761 169.136C280.779 168.385 290.548 166.337 295.399 164.392C295.905 164.221 296.376 164.153 296.477 164.324C296.646 164.563 296.275 196.68 295.804 226.032L295.568 240.401L296.578 241.459C299.071 243.985 302.777 242.893 303.417 239.48C303.552 238.695 303.687 235.52 303.72 232.346C303.754 229.206 303.922 218.353 304.091 208.216C304.259 198.079 304.428 183.096 304.428 174.938V160.091L307.123 158.282C308.605 157.293 311.165 155.177 312.816 153.607C321.373 145.313 324 136.166 320.059 128.247C317.768 123.606 313.928 120.397 307.123 117.394L303.518 115.824L303.282 110.465C303.148 107.53 302.676 100.226 302.272 94.219C301.834 88.212 301.564 83.1948 301.699 83.0924C301.8 82.99 303.114 82.478 304.596 81.9661C318.206 77.1878 322.08 66.9144 314.77 55.071C306.954 42.4426 290.851 33.4662 271.077 30.7358C267.337 30.2238 253.727 29.8142 249.853 30.0873ZM266.731 38.4152C278.724 39.6439 288.83 42.9205 296.679 48.1766C305.607 54.1154 311.536 62.7163 310.155 67.7677C309.582 69.9862 307.258 72.1364 303.956 73.5358C293.378 78.0069 262.217 82.478 241.6 82.5122C233.312 82.5463 228.832 82.1026 224.621 80.8739C219.804 79.4404 216.906 77.6656 212.662 73.5699C210.607 71.5562 208.586 69.7473 208.181 69.5425C206.227 68.4844 203.734 69.5083 202.825 71.7268C201.949 73.8088 202.454 74.7645 206.531 78.8943C213.133 85.5498 217.984 88.1096 227.114 89.8162C231.898 90.7036 250.257 90.7377 259.454 89.8503C268.045 89.0311 280.273 87.427 286.438 86.3348C289.201 85.857 291.963 85.3792 292.57 85.2768C293.58 85.1061 293.648 85.1402 293.648 86.0618C293.648 86.6079 293.816 88.8264 293.984 90.9766C294.49 97.3249 295.298 110.056 295.669 118.111C296.242 130.159 296.646 154.562 296.275 155.04C295.77 155.689 290.919 157.463 286.742 158.59C279.364 160.535 270.773 161.457 256.321 161.832L247.529 162.071L246.181 160.672C243.89 158.282 242.442 157.702 238.804 157.702C235.502 157.702 234.727 157.19 237.456 156.815C239.343 156.542 241.33 155.245 242.442 153.538C243.116 152.514 243.284 151.866 243.284 150.057C243.284 148.146 243.453 147.565 244.295 146.337C245.103 145.074 245.272 144.494 245.272 142.582C245.305 139.988 244.463 138.179 242.745 137.156C242.004 136.712 241.768 136.302 241.768 135.517C241.734 133.06 239.41 130.056 236.883 129.203C236.176 128.964 235.031 128.896 234.222 128.998C233.009 129.203 232.706 129.101 232.133 128.486C231.19 127.428 229.573 126.814 227.619 126.814C225.396 126.814 223.88 127.497 222.701 128.998C221.993 129.886 221.454 130.227 220.781 130.227C218.726 130.227 216.165 131.831 214.919 133.913C214.11 135.21 213.875 137.804 214.447 138.726C214.683 139.067 214.447 139.511 213.639 140.261C210.64 143.163 211.516 149.17 215.188 150.705C215.997 151.047 216.132 151.286 215.963 151.968C215.727 152.89 216.603 155.552 217.378 156.166C218.086 156.781 217.951 157.19 217.041 157.19C214.75 157.19 211.718 159.033 210.034 161.457L209.023 162.89L204.947 162.754C178.064 161.9 165.364 159.204 154.954 152.207C152.562 150.603 152.125 150.159 152.293 149.545C152.394 149.17 153 146.132 153.708 142.855C156.201 130.637 160.21 115.209 163.343 105.823C166.947 94.9016 171.529 84.9013 176.346 77.4949C179.547 72.546 181.568 70.0203 185.812 65.6174C201.275 49.6101 221.892 40.702 249.011 38.3128C252.211 38.0398 263.531 38.108 266.731 38.4152ZM310.66 128.93C313.086 131.149 313.995 133.367 313.759 136.371C313.557 139.169 312.614 141.354 310.289 144.46C308.639 146.644 304.899 150.296 304.63 149.989C304.562 149.92 304.428 144.186 304.293 137.292L304.057 124.698L306.483 125.995C307.797 126.712 309.683 128.008 310.66 128.93ZM148.587 128.759C147.509 133.401 145.757 141.49 145.757 141.968C145.757 144.152 143.669 140.637 143.062 137.463C142.422 133.947 143.938 130.329 147.004 128.043C147.88 127.36 148.722 126.814 148.857 126.814C148.958 126.814 148.857 127.701 148.587 128.759ZM229.944 129.374C230.483 129.647 231.089 130.329 231.325 130.91C231.797 132.07 232.403 132.172 233.986 131.387C235.401 130.671 236.715 131.012 238.164 132.514C239.545 133.879 239.949 135.142 239.444 136.473C238.972 137.667 239.309 138.418 240.252 138.418C243.217 138.418 244.463 144.186 241.836 145.825C240.151 146.883 240.05 147.258 240.825 148.658C241.499 149.818 241.532 150.057 241.128 151.354C240.859 152.378 240.32 153.06 239.309 153.811C238.062 154.733 237.759 154.801 236.176 154.596L234.39 154.392L234.054 155.723C233.548 157.634 232.672 158.317 230.483 158.487C228.394 158.658 227.181 158.078 226.541 156.644C226.103 155.723 225.093 155.586 224.116 156.337C222.499 157.566 219.635 156.405 218.422 154.016C217.782 152.753 217.782 152.685 218.355 151.388C219.062 149.818 218.692 148.999 217.311 148.999C215.997 148.999 214.885 148.282 214.312 147.122C213.268 144.835 214.043 142.139 215.997 141.285C217.546 140.637 217.715 140.125 216.873 138.726C216.468 138.077 216.165 137.156 216.165 136.678C216.165 135.381 217.479 133.572 218.995 132.821C220.107 132.275 220.444 132.241 221.589 132.616C223.105 133.128 223.307 132.992 223.88 131.251C224.082 130.568 224.655 129.783 225.194 129.476C226.305 128.759 228.664 128.691 229.944 129.374ZM225.834 159.306C226.272 159.716 226.609 160.399 226.609 160.842C226.609 161.627 226.541 161.593 225.328 160.364C224.655 159.648 224.116 158.965 224.183 158.794C224.385 158.351 225.025 158.556 225.834 159.306ZM229 171.764C228.933 181.389 228.765 183.71 228.125 183.096C228.023 182.993 228.125 178.863 228.293 173.88C228.461 168.931 228.63 163.88 228.63 162.685C228.63 161.491 228.731 160.603 228.866 160.706C228.967 160.842 229.034 165.825 229 171.764Z" fill="black"/>
<path d="M217.445 54.3201C216.266 54.9345 215.39 56.641 215.39 58.211C215.39 62.6139 221.387 63.8767 223.408 59.9175C225.261 56.2656 221.05 52.3064 217.445 54.3201Z" fill="black"/>
<path d="M288.359 54.286C286.91 54.9004 285.899 56.641 285.899 58.45C285.899 59.5763 286.101 60.0882 287.011 61.0439C288.359 62.5115 290.009 62.9211 291.727 62.1702C295.062 60.7708 295.096 55.6512 291.795 54.2519C290.38 53.6716 289.74 53.6716 288.359 54.286Z" fill="black"/>
<path d="M225.429 136.985C222.903 138.179 221.218 140.91 221.218 143.777C221.252 147.19 223.711 150.296 227.013 151.047C231.628 152.105 236.041 148.419 236.041 143.538C236.041 141.661 234.458 138.76 232.74 137.565C230.853 136.268 227.518 135.995 225.429 136.985ZM231.594 139.306C233.077 140.398 234.121 142.89 233.851 144.596C233.144 148.76 227.99 150.535 224.992 147.702C222.364 145.21 222.903 141.081 226.07 139.033C227.417 138.179 230.247 138.35 231.594 139.306Z" fill="black"/>
</svg>
